Normalized EMG Linear Envelopes
nRows=119
nColumns=4

endheader
time	 med_gas_r	  soleus_r	 tib_ant_r	
1.29738	  0.038866	  0.257391	  0.058162	
1.33065	  0.038485	  0.253261	  0.059008	
1.36391	  0.037959	  0.248532	  0.059839	
1.39718	  0.037349	  0.244199	  0.060678	
1.43044	  0.036719	  0.239639	  0.061406	
1.46371	  0.036183	  0.234029	  0.062020	
1.49698	  0.035894	  0.227704	  0.062379	
1.53024	  0.035862	  0.221371	  0.062172	
1.56351	  0.036047	  0.215740	  0.061461	
1.59677	  0.036369	  0.211467	  0.060519	
1.63004	  0.036659	  0.209234	  0.059472	
1.66331	  0.036752	  0.209222	  0.058419	
1.69657	  0.036584	  0.211232	  0.057354	
1.72984	  0.036247	  0.214055	  0.056329	
1.7631	  0.035910	  0.216563	  0.055469	
1.79637	  0.035702	  0.218748	  0.054955	
1.82964	  0.035628	  0.220339	  0.055025	
1.8629	  0.035759	  0.221393	  0.055811	
1.89617	  0.036142	  0.222534	  0.057175	
1.92944	  0.036627	  0.224218	  0.058708	
1.9627	  0.037135	  0.226387	  0.060052	
1.99597	  0.037632	  0.228217	  0.061224	
2.02923	  0.038141	  0.229405	  0.062311	
2.0625	  0.038682	  0.230439	  0.063269	
2.09577	  0.039214	  0.231573	  0.063897	
2.12903	  0.039828	  0.232208	  0.063956	
2.1623	  0.040496	  0.231508	  0.063249	
2.19556	  0.041079	  0.229804	  0.061869	
2.22883	  0.041503	  0.228358	  0.060139	
2.2621	  0.041728	  0.227454	  0.058408	
2.29536	  0.041832	  0.227006	  0.056965	
2.32863	  0.041923	  0.226944	  0.055994	
2.3619	  0.041965	  0.227236	  0.055557	
2.39516	  0.042040	  0.228034	  0.055696	
2.42843	  0.042266	  0.229022	  0.056182	
2.46169	  0.042631	  0.229421	  0.056589	
2.49496	  0.043038	  0.229302	  0.056811	
2.52823	  0.043405	  0.229067	  0.056936	
2.56149	  0.043566	  0.228818	  0.057091	
2.59476	  0.043442	  0.228433	  0.057445	
2.62802	  0.043105	  0.228514	  0.058125	
2.66129	  0.042701	  0.229219	  0.058991	
2.69456	  0.042421	  0.230474	  0.059841	
2.72782	  0.042302	  0.232519	  0.060530	
2.76109	  0.042354	  0.234857	  0.060856	
2.79435	  0.042648	  0.236700	  0.060629	
2.82762	  0.043216	  0.237898	  0.059763	
2.86089	  0.044062	  0.238527	  0.058611	
2.89415	  0.045161	  0.238809	  0.057678	
2.92742	  0.046380	  0.239033	  0.057152	
2.96069	  0.047542	  0.239282	  0.056870	
2.99395	  0.048490	  0.239067	  0.056600	
3.02722	  0.049039	  0.237878	  0.056339	
3.06048	  0.048752	  0.235292	  0.056213	
3.09375	  0.047586	  0.231637	  0.056190	
3.12702	  0.045869	  0.227079	  0.056099	
3.16028	  0.043892	  0.221420	  0.055878	
3.19355	  0.041856	  0.215566	  0.055554	
3.22681	  0.039987	  0.210944	  0.055079	
3.26008	  0.038521	  0.208368	  0.054482	
3.29335	  0.037537	  0.208873	  0.053911	
3.32661	  0.037229	  0.214063	  0.053729	
3.35988	  0.037901	  0.226878	  0.054522	
3.39315	  0.039797	  0.251274	  0.056770	
3.42641	  0.043145	  0.291236	  0.060758	
3.45968	  0.048201	  0.349387	  0.066492	
3.49294	  0.055086	  0.426739	  0.073639	
3.52621	  0.063616	  0.521347	  0.081504	
3.55948	  0.073008	  0.624431	  0.089128	
3.59274	  0.081600	  0.719415	  0.095075	
3.62601	  0.086705	  0.778677	  0.097224	
3.65927	  0.085259	  0.769215	  0.093526	
3.69254	  0.078617	  0.699744	  0.085941	
3.72581	  0.069735	  0.599600	  0.077131	
3.75907	  0.060781	  0.493235	  0.068885	
3.79234	  0.052969	  0.396384	  0.062044	
3.8256	  0.046770	  0.317137	  0.056800	
3.85887	  0.042201	  0.258475	  0.053095	
3.89214	  0.039131	  0.219802	  0.050681	
3.9254	  0.037347	  0.198365	  0.049367	
3.95867	  0.036529	  0.189820	  0.049084	
3.99194	  0.036374	  0.189244	  0.049625	
4.0252	  0.036698	  0.192548	  0.050650	
4.05847	  0.037355	  0.197160	  0.051859	
4.09173	  0.038074	  0.201820	  0.053085	
4.125	  0.038550	  0.205870	  0.054265	
4.15827	  0.038565	  0.209169	  0.055387	
4.19153	  0.038189	  0.211891	  0.056416	
4.2248	  0.037646	  0.213639	  0.057278	
4.25806	  0.037099	  0.213917	  0.057797	
4.29133	  0.036602	  0.213753	  0.057759	
4.3246	  0.036186	  0.214549	  0.057240	
4.35786	  0.035924	  0.217312	  0.056660	
4.39113	  0.035972	  0.222274	  0.056184	
4.4244	  0.036379	  0.228467	  0.055707	
4.45766	  0.037192	  0.235071	  0.055140	
4.49093	  0.038363	  0.241386	  0.054407	
4.52419	  0.039772	  0.246679	  0.053649	
4.55746	  0.041219	  0.250176	  0.053136	
4.59073	  0.042462	  0.251642	  0.053064	
4.62399	  0.043341	  0.251321	  0.053553	
4.65726	  0.043787	  0.249864	  0.054549	
4.69052	  0.043756	  0.247449	  0.055744	
4.72379	  0.043365	  0.243857	  0.056854	
4.75706	  0.042822	  0.238929	  0.057844	
4.79032	  0.042307	  0.233019	  0.058811	
4.82359	  0.041925	  0.226684	  0.059885	
4.85685	  0.041646	  0.220599	  0.060936	
4.89012	  0.041390	  0.215146	  0.061563	
4.92339	  0.041039	  0.211446	  0.061543	
4.95665	  0.040493	  0.210132	  0.061106	
4.98992	  0.039832	  0.210786	  0.060449	
5.02319	  0.039160	  0.212913	  0.059840	
5.05645	  0.038568	  0.216364	  0.059486	
5.08972	  0.038239	  0.221348	  0.059428	
5.12298	  0.038186	  0.227259	  0.059666	
5.15625	  0.038264	  0.232569	  0.060200	
5.18952	  0.038321	  0.236247	  0.060834	
5.22278	  0.038310	  0.237780	  0.061427	
